<svg xmlns="http://www.w3.org/2000/svg" viewBox="0 0 47.02 91.96" style=""><title>smart</title><path style="fill:none;stroke:#fff;stroke-linecap:round;stroke-linejoin:round;stroke-width:1.7569832801818848px" d="M13.87,5.91L31.56,5.91" class="ftMWlxFB_0"></path><path style="fill:none;stroke:#fff;stroke-miterlimit:10;stroke-width:2px" d="M20.28,80.36A3.23,3.23 0,1,1 26.740000000000002,80.36A3.23,3.23 0,1,1 20.28,80.36" class="ftMWlxFB_1"></path><path width="45.32" height="90.26" style="fill:none;stroke:#fff;stroke-linecap:round;stroke-linejoin:round;stroke-width:1.7007820505189417px" d="M 6.85,0.85 L 40.17,0.85 A 6,6,0,0,1,46.17,6.85 L 46.17,85.11 A 6,6,0,0,1,40.17,91.11 L 6.85,91.11 A 6,6,0,0,1,0.85,85.11 L 0.85,6.85 A 6,6,0,0,1,6.85,0.85" class="ftMWlxFB_2"></path><style data-made-with="vivus-instant">.ftMWlxFB_0{stroke-dasharray:18 20;stroke-dashoffset:19;animation:ftMWlxFB_draw 666ms ease-in-out 0ms forwards;}.ftMWlxFB_1{stroke-dasharray:21 23;stroke-dashoffset:22;animation:ftMWlxFB_draw 666ms ease-in-out 166ms forwards;}.ftMWlxFB_2{stroke-dasharray:261 263;stroke-dashoffset:262;animation:ftMWlxFB_draw 666ms ease-in-out 333ms forwards;}@keyframes ftMWlxFB_draw{100%{stroke-dashoffset:0;}}@keyframes ftMWlxFB_fade{0%{stroke-opacity:1;}92.3076923076923%{stroke-opacity:1;}100%{stroke-opacity:0;}}</style></svg>