<svg xmlns="http://www.w3.org/2000/svg" viewBox="0 0 29 23.8" style=""><title>computer</title><path style="fill:none;stroke:#000;stroke-linecap:round;stroke-linejoin:round" d="M8.18,21.51L19.67,21.51" class="BVVPDnoj_0"></path><path d="M3.19,18.3C2.2,18.3.5,20.58.5,21.52S.77,23.3,1.93,23.3H27.08c1.15,0,1.42-.84,1.42-1.78s-1.7-3.22-2.69-3.22" style="fill:none;stroke:#000;stroke-linecap:round;stroke-linejoin:round" class="BVVPDnoj_1"></path><path d="M26.66,7.64V3.77A3.28,3.28,0,0,0,23.39.5H5A3.28,3.28,0,0,0,1.74,3.77v9.72A3.28,3.28,0,0,0,5,16.76H23.39a3.28,3.28,0,0,0,3.27-3.27v-2" style="fill:none;stroke:#000;stroke-linecap:round;stroke-miterlimit:10" class="BVVPDnoj_2"></path><style data-made-with="vivus-instant">.BVVPDnoj_0{stroke-dasharray:12 14;stroke-dashoffset:13;animation:BVVPDnoj_draw 2000ms linear 0ms forwards;}.BVVPDnoj_1{stroke-dasharray:40 42;stroke-dashoffset:41;animation:BVVPDnoj_draw 2000ms linear 500ms forwards;}.BVVPDnoj_2{stroke-dasharray:73 75;stroke-dashoffset:74;animation:BVVPDnoj_draw 2000ms linear 1000ms forwards;}@keyframes BVVPDnoj_draw{100%{stroke-dashoffset:0;}}@keyframes BVVPDnoj_fade{0%{stroke-opacity:1;}94.44444444444444%{stroke-opacity:1;}100%{stroke-opacity:0;}}</style></svg>