<svg xmlns="http://www.w3.org/2000/svg" viewBox="0 0 1461.55 2571.89"><title>kanji</title><path d="M498.6,1779.34l1.26-6-1.59-.57,3.18-3.39,2.42,2.6,4.08-5.49-1.33-.46c.75-2.49,1.11-5.2,2.34-7.44,3.26-5.94,6.82-11.72,10.44-17.46a39.49,39.49,0,0,1,4.26-4.83l-9.06,17.06c4.4-.8,16.69-20.19,16.87-25.33l-7.88,8.37,10.28-18.37,1.44.45c-.19,1.88-.37,3.75-.56,5.62l1.17.37L548.25,1703l-1-.66-9,13.21-1.61-1c1.83-3.15,3.57-6.36,5.52-9.44,6.71-10.59,13.25-21.31,20.34-31.65,8.09-11.8,16.75-23.21,25.07-34.86,1.92-2.68,3.44-5.66,5.23-8.44s3.9-5.58,5.68-8.48a25.89,25.89,0,0,0,3.23-6.49c.75-2.75.15-5,4.53-6.29,3-.86,4.28-7,6.69-10.53,1.7-2.48,4-4.54,6.11-6.85,1.51-4.44,3.17-9.32,5.15-15.18-5.72,3.56-5,12.23-12.93,11.58,1.33-3.91,2.56-7.73,4-11.48.21-.56,1.43-.65,2-1.17,1.24-1.21,2.35-2.56,3.51-3.85l-.07.06c4.85-6.85,4.57-7.79-.38-14.08-4.81-6.1-8.87-12.78-13.54-19-6.84-9.11-13.9-18.06-20.92-27-5.4-6.91-11-13.69-16.32-20.64-10.41-13.51-20.86-27-31-40.68-7.68-10.35-14.86-21.06-22.39-31.51-7.94-11-16.22-21.79-24-32.91-12.1-17.28-24.1-34.64-35.8-52.18-9.65-14.48-18.87-29.26-28.18-44-6.54-10.33-12.88-20.81-19.39-31.17-10.47-16.68-21.34-33.12-31.42-50-9.59-16.07-18.3-32.67-27.55-49-4.42-7.78-9.49-15.21-13.77-23.07-11.67-21.45-23.39-42.88-34.5-64.62q-18.84-36.8-36.58-74.16c-5.77-12.06-10.5-24.62-15.77-36.92-4.18-9.75-8.62-19.39-12.67-29.19-5.12-12.38-9.91-24.9-15-37.31-1.06-2.62-2.6-5-3.92-7.55l-2.34,1.2,26.51,66.57-1.47,1.14c-5.8-4-5.61-11.37-8.68-16.9s-5.28-11.19-8.59-16.49c7.92,23.69,17.93,46.54,28.23,69.23s21.5,45.16,32.3,67.72l-1.4.72-8.88-16.48-1.24.53c.88,1.94,1.82,3.85,2.61,5.82,2.2,5.51,4.38,11,6.39,16.61.18.49-.92,1.45-1.42,2.19l.08.06c-1.84-3.84-3.67-7.68-5.54-11.51a7.09,7.09,0,0,0-1.52-2.53c-6.24-4.87-5-12.82-8-19l3.88,1.53,1.05-1.13L252.86,1001l-1.37.65c2.4,5.06,5.11,10,7.12,15.2,2.33,6.06,4,12.35,6,18.55-2.94-4.91-5.61-10-8.9-14.65-2.59-3.65-2.14-9.07-7.13-11.44-.95-.45.06-4.13-.83-5.79-2.15-4-5.11-7.62-7.28-11.63-.87-1.6-.38-3.88-.76-5.8-.34-1.74-.59-4.51-1.61-4.89-3.55-1.35-2.61-4.45-3.49-6.82-.34-.93-.28-2.29-.92-2.78-4.33-3.27-7.27-7-5.72-12.89.17-.62-1.55-1.6-2.07-2.58-1-1.88-5.41-2.65-2.1-6.06.13-.14-.2-1-.52-1.25-3.84-2.35-3.53-6.15-4.28-9.95-.69-3.5-3.82-6.45-5.34-9.88-1.35-3.06-1.78-6.53-3-9.67s-2.81-5.95-4.27-8.9c-1.16-2.37-3.78-4.45-1.14-7.5.27-.31-.45-1.89-1.08-2.5a21.67,21.67,0,0,1-6.33-12.74c-.45-2.73-.59-5.92-3.43-8.68-2.45-2.38-2.3-7.4-3.33-11.25a21.38,21.38,0,0,0-1.4-4.54c-1.4-2.64-3.48-5-4.61-7.72q-6.9-16.79-13.35-33.77c-2.93-7.72-5.27-15.68-8.32-23.35-5.13-12.91-10.65-25.66-15.94-38.5-1.06-2.57-1.86-5.25-3-8.46-4.32,3.58-6.25.91-7.37-2.43-1.95-5.75-3.65-11.6-5.16-17.48-.25-1,.72-3.19,1.55-3.45,5.28-1.67,8.82-5.13,11.51-9.76.38-.66,1.27-1,2.8-2.18-5.9-3.48-11.26-6.8-16.77-9.85-14.16-7.82-28.4-15.5-42.6-23.26-12.47-6.82-25-13.48-37.34-20.6-4.83-2.79-9-6.74-13.62-9.93-1.77-1.21-4-1.74-6.93-3,.42-1.25.52-3.67,1.78-5,6-6.25,6.38-14.56,8.83-22.17a104.15,104.15,0,0,1,7.37-16.65c3.7-7,7.92-13.69,12.21-21-2-1.18-3.53-2.16-5.12-2.9-3.45-1.61-4.15-3.93-1.85-6.84.72-.91,1.68-1.62,2.45-2.5,4.7-5.4,9.37-10.82,14.07-16.22,1.06-1.22,2.32-2.28,3.33-3.55,2.42-3,4.7-6.19,7.14-9.22,1.73-2.15,3.27-4.71,5.5-6.17,5.71-3.74,8.45-10.86,15.81-12.85,3.32-.9,5.08-4.27,2.89-8.07-1.79-3.13-1.08-5.94.6-8.89,6.57-11.51,12.8-23.22,19.66-34.55,1.62-2.67,5.58-3.8,7.77-6.26a76.84,76.84,0,0,0,10.16-13.41c1.93-3.47,4.64-4.9,7.87-6.17a45.29,45.29,0,0,0,5.06-2c3.41-1.84,6.16-3.21,8,2.11.86,2.44,3.36,2.35,5.34-.16,4.94-6.29,10.18-12.2,17.09-16.64,4.17-2.67,6.94-2.3,10.3.72,7.61,6.82,15.11,13.77,22.87,20.41,14,12,27.8,24.07,42.15,35.54,14.63,11.71,29.64,22.94,44.6,34.24,12.39,9.35,24.72,18.8,37.47,27.64q26.18,18.15,53,35.4,23.2,15,47,29.2c9.94,6,20.32,11.17,30.46,16.81,5.76,3.21,11.31,6.82,17.16,9.87,21.37,11.12,42.68,22.37,64.29,33,17.11,8.43,34.66,16,52,24,10.43,4.83,20.68,10.11,31.23,14.66,9,3.9,18.4,7,27.59,10.54,5,1.93,10,4,15,6.07.15.06.29.21.44.23,7.84.88,13.71,7,21.74,7.83s15.88,3.15,23.83,4.68q17.83,3.42,35.71,6.64c4.55.81,9.2,1.11,13.74,2,1.89.35,3.63,1.55,5.33,1.7,7,.5,14,1,21,1.49,28.54,1.84,57.07,3.91,85.63,5.35,15.79.79,31.63.41,47.44.72,4.45.08,8.9.71,13.35,1.11,3.22.3,6.43.67,9.65,1,7.63.73,15.26,1.35,22.87,2.21,3.19.36,6.32,1.21,9.88,1.92l-1.85,3.13,22.78,1.06.2,2.39-10.54,2.32,24.41,2.21.12,2.41-14.95,2.85.12,2.35,20.3,1.82.23,1.07-3.14,1.75L1049,792.1l-.08,1.79-16.36,1.46,26,5.26-.16,2.32-28.09,2-.09,1.66c4.68.4,9.37,1.22,14,1.08s8.49.51,12.07,4.09c2,2,5.55,2.68,8.53,3.28a114.49,114.49,0,0,0,11.6,1.19l-.08,1.55h-17.61l0,1.74c38.79-.54,77.59-.61,117.12-3.38-.95.81-1.34,1.13-3.12,2.66,7.31.38,13.3.94,19.29,1,11.59,0,23.17-.22,34.76-.35,3.33,5.67,9,1,13.45,3,3,1.34,7.13.36,10.75.26,3-.09,6.06-.39,9.09-.6.1.58.19,1.15.29,1.73l-5.42,1.77,28.08,3,0,2L1223,838.4l.07.75c4.45,0,8.92.22,13.36-.06s8.92-1,13.38-1.59l14.2-1.73c.1,4.11,2.91,3.9,6.23,3.73,6.16-.3,12.34-.08,18.51-.08.08.72.17,1.44.26,2.17l-9.17,1.8c2,2.31,8.67,3.33,9.81,1,2.27-4.57,5.92-2.33,9.25-2.36l-3.55,1.45.28,1.21c7.62-.51,15.24-1.29,22.86-1.43,6-.11,12.08.57,18.12.89,0,.49,0,1,0,1.46l-36.13,4.7-.32,2.27c1.63.4,4.07,1.67,4.76,1,4.84-4.42,10.58-.24,15.79-2.07,4.27-1.48,9.21-1.15,13.86-1.38,1.43-.07,2.89.64,4.34,1,0,.46,0,.92,0,1.38l-5.89,2,12.67,2.33-.18,2.3c-3.77.22-8.12,1.72-11.18.35-4.25-1.89-5.75,2.66-8.91,2.13-.67,4.54-4.29,2.63-6.69,2.86-20.19,1.93-40.41,3.7-60.62,5.54a19.12,19.12,0,0,0-2.18.49c1,.75,1.71,1.3,3.17,2.39h-26l0,.38,37.55,4.79-.09,1.35h-20.43l0,1.11,43.61,3.92c-9.29,7.22-19,3.45-28.11,5.4l6.13.83c-.3,1.09-.56,2.09-1,3.83l17.83,2.43-3.37,3.08c3.66.61,6.3,1.06,8.93,1.48,2.93.48,5.88.85,8.79,1.4,5.74,1.1,11.47,2.29,17.08,3.42h-36.64l0,.48,45.43,5.17c-2.16,3.75-3.86,4.23-9.06,3.92-6.76-.4-13.56,0-20.33-.19-7.81-.25-15.69-.28-23.39-1.42-5.78-.86-10.2-.11-13.49,4.87l-.11.46-7.65,3.23,3.63,4.66h-15.16l14.71-8.87c-2.43-6.21-8.45-7.8-21-5.55.11.59.24,1.17.33,1.76s.18,1.21.34,2.33c-3.14-.3-5.9-.58-8.67-.83-2.62-.24-5.25-.46-8.22-.71-.88-1.91.21-6.76-5.23-3.82,1.8,2.26,3.5,4.39,5.19,6.53l.06-.07-9,2.13-1-1.39,2.63-3.92c-4.18,1.19-7.32,2.51-10.56,2.87-3.07.34-6.25-.34-9.85-.6,2.8-4.92,11.74,3.58,11-6.63-2.69,0-5.57-3.39-8.12,1.05-.24.41-3.49-.75-5.26-1.41-1.58-.6-3.76-2.58-4.45-2.12-3.68,2.45-6.9-.16-10.29-.27a38.81,38.81,0,0,0-4.54.39c.24,1.7.46,3.41.72,5.11.07.43.26.86.66,2.14l-6.66-1.2v-7.4c-3.26-.43-6.51-1.18-9.75-1.19a17,17,0,0,0-6.43,1.65c-3.87,1.64-5.8.73-6-4.3l-17.27,2.26c.76,15.24,1.6,29.72-1.23,44.15a83.37,83.37,0,0,0-1.07,13.88c-.48,18.08-4.94,35.42-9.57,52.73s-9.26,34.59-14,51.85c-1.81,6.58-3.87,13.1-6,19.59-.35,1-1.75,1.73-2.61,2.64a7.44,7.44,0,0,0-2,2.42c-4.47,14.41-13.15,26.78-20,40-1.64,3.11-4,5.53-3.72,9.32a3.89,3.89,0,0,1-.41,2c-4.41,9-7.93,18.64-13.59,26.79-5.49,7.91-8,17.45-13.84,24.61-4.65,5.76-7.3,13.6-15.11,17.06a6.85,6.85,0,0,0-3.46,9.31c.83,1.89.46,4.31.64,6.49l-1.76.17c-.55-1.42-1.11-2.83-1.78-4.56-2.73,5.38-5.29,10.33-7.73,15.34-.4.82-.08,2-.33,2.9-.75,2.85-1.12,6-2.54,8.46-5.61,9.83-11.72,19.38-17.34,29.21-4.29,7.49-8.23,15.18-12.13,22.89-10.09,19.93-19.89,40-30.2,59.83-4.22,8.11-7.91,16.51-15.1,23-3.64,3.28-4.88,9.15-7.39,13.75-1.22,2.22-3.15,4-4.28,6.31-1.35,2.7-2,5.78-3.32,8.49-3.11,6.21-6.56,12.25-9.71,18.43-2.37,4.66-4.32,9.53-6.76,14.14-3.59,6.79-7.45,13.43-11.21,20.13-2.71,4.81-5.44,9.61-8.15,14.41l-2-.87c1.59-3.78,3-7.65,4.81-11.3,1.6-3.17,3.77-6,5.48-9.17.25-.45-.68-1.53-1.06-2.32-.64.38-1.55.61-1.89,1.18-4,6.6-7.93,13.2-11.67,19.93-.72,1.29-.46,3.12-.64,4.69l-10.92,15.06c6.18.27,12-8.61,10.84-15.13.91,1,2.47,2,2.56,3.07a9.88,9.88,0,0,1-1.17,5.28c-6.18,11.4-12.51,22.72-18.82,34-.19.35-.71.52-1.73,1.22l5.58-16-1.61-.64a36.7,36.7,0,0,0-3.26,4c-4.95,8.14-9.9,16.29-14.65,24.54-1.2,2.1-1.33,4.82-2.55,6.9-4.54,7.69-9.49,15.14-13.94,22.88-2.21,3.85-3.51,8.2-5.51,12.18-1.45,2.87-3.36,5.5-5.59,9.07l-1.35-4.56-1.36-.12-11.41,22.33,4.63-.56c-3.75,4.26-1.11,7.3,1.2,10.35C815,1631.1,825.31,1645,836,1658.5q23.34,29.67,47.18,59c9.41,11.56,19.3,22.73,28.94,34.1,16.49,19.45,32.7,39.15,49.51,58.32,14.54,16.56,29.77,32.51,44.66,48.76,10.09,11,20,22.18,30.22,33.06,12.83,13.67,25.72,27.29,38.91,40.61,11.31,11.43,23.2,22.29,34.57,33.66,5.07,5.08,9.24,11,14.27,16.18,3.78,3.84,8.48,6.77,12.38,10.5,3,2.86,5.1,6.6,8.06,9.47,2.55,2.48,5.94,4.09,8.63,6.45,10.93,9.61,21.5,19.62,32.64,29,10,8.4,20.61,16.12,31,24.12,7.13,5.52,14.31,11,21.43,16.5,21.21,16.48,42.36,33,63.63,49.44,5.33,4.11,11.21,7.52,16.44,11.73,2.09,1.68,3.12,4.66,4.63,7.06l-1.62,1.62-22.87-16.92c-1.18,2.33,1.24,5.76,3.85,7.48,5.46,3.61,10.68,7.58,15.9,11.54,3.4,2.58,8.83,7,12.1,9.73a16.11,16.11,0,0,1,4.16,4.75c-11.47-4.55-19.72-14-30.34-19.76-.27.39-.55.77-.82,1.15L1339,2171l.34.17c10,7.37,20.22,14.54,30.08,22.14,9.68,7.48,19,15.37,28.5,23.14a12,12,0,0,1,3.2,4.29c-12.71-5.42-21.71-17.23-35.59-20.1l18,14.71.06-.06c-5-.56-9.11-3-13-5.94a8.16,8.16,0,0,1-1.78-2.16c-.44-.66-.51-1.78-1.08-2.11-5.52-3.14-11.1-6.15-17.64-9.73.85,1.66,1,2.69,1.65,3.13,7.86,5.8,15.3,12.46,23.86,16.94a112.18,112.18,0,0,1,16.69,11.13c7.53,5.85,15.08,11.66,22.57,17.45-2.58,1-12.2-4.19-21.77-11.89a19,19,0,0,1-1.38,1.47c-.45.39-1,.67-2.42,1.62,2.94-8-4.4-8.41-7.4-11.5-3.66-3.75-9.05-5.82-12.46-7.87l3,3.07-1,1.35-12.42-7.46-.83,1.27,83.9,59.44-.54.82-23.14-14.27-.93,1.4,44.1,31.53-1.18,1.73c-5.21-3.52-10.48-7-15.62-10.58-16.12-11.33-32.17-22.76-48.34-34-.84-.58-2.56.12-3.87.22l.06-.06c-3-.78-5.94-1.32-5.61-5.83.06-.87-2.28-5.49-6.39-3-.74.45-4.21-1.67-4.78-3.2-1.58-4.28-3.22-5.76-7.55-5a5.07,5.07,0,0,1-5.64-5.51,2.43,2.43,0,0,0-1.05-1.66c-3.52-2.62-7.09-5.17-10.64-7.73l-.84,1.06,8.54,6.31-1.18,1.54c-8.38-7.89-19.74-11.88-27.27-21.89-6.33,1.57-9-9.85-16-6.56l-55.92-38.85c-1.09,3-.67,4.69,2.67,6,6.27,2.54,10.76,7.31,14.8,12,3.75,2.33,7.62,4.48,11.23,7q19.37,13.53,38.57,27.27c6.17,4.42,12.1,9.17,18.21,13.69,7,5.18,14.1,10.27,21.15,15.4l-.88,1.33-60.47-41.71c-2.1,5.58,3,7.17,4.61,7.48,7.65,1.54,11.21,8.55,17.43,11.82,2.91,1.52,5.35,3.92,8,5.93l.06-.07c-1.56-.31-3.31-.27-4.65-1a184.16,184.16,0,0,1-16.8-9.61c-5.85-4-11.16-8.76-16.84-13-1.76-1.32-4.08-1.86-5.92-3.1-5.15-3.46-10.85-6.45-15-10.86-3.24-3.42-5.16-6.34-10.84-6.75-4.18-.31-8.09-5.13-12-8.1-1-.74-1.41-2.16-2.2-3.19a83.92,83.92,0,0,0-6.55-8.19c-2.51-2.54-5.5-4.6-8.87-7.35l2.13,5.51c-5.66-2.92-12.15-5.07-10.71-13l-7.78,1c-.17-1.76-.35-3.52-.56-5.57L1203.47,2133v5.42c-11.59-11.45-25.8-18.92-35.53-31.35l1.24-1.5c1.6.86,3.17,1.78,4.81,2.54a16,16,0,0,0,3.84,1.25c.22,0,1.15-1.66.94-1.95a13.32,13.32,0,0,0-3-2.85c-4.57-3.22-9.31-6.2-13.73-9.6-1.24-1-1.6-3-2.36-4.63l-.07.07c2.78,1.71,5.71,3.24,8.33,5.17,9.71,7.14,19.46,14.24,28.92,21.71,5.53,4.37,10.55,9.4,15.79,14.14l-5.76-2.21a62.28,62.28,0,0,0,10.12,9.11q12.49,9.49,25.08,18.87c1.27.94,3.23,3.06,3.5-.85l11.11,4c-.93-1.56-1.12-2.21-1.56-2.55-6-4.69-11.61-10.13-18.2-13.77s-10.88-9.6-17-13.64c-7.27-4.84-13.94-10.61-21.32-15.26-5.08-3.2-7.12-10.44-14.38-10.58-.35,0-.71-.65-1-1-3.78-4.57-7.39-9.29-11.39-13.65-1.41-1.54-4.78-3.58-5.53-3-3.13,2.29-3.84.2-4.41-1.88-1.91-7-8.14-10.47-12.58-15.37-1-1.13-3.46-.94-4.57-2-4.36-4.32-8.13-9.28-12.71-13.32-6.33-5.57-13.43-10.26-19.75-15.85-3.42-3-6.45-5.3-10.56-3.5,2.56,4.22,5.14,8.5,7.76,12.75a7.07,7.07,0,0,0,1.37,1.42c6.18,5.54,12.39,11,18.51,16.63a57.1,57.1,0,0,1,4.18,4.74l.05-.07c-6.16-4.76-12.29-9.57-18.5-14.27a160.72,160.72,0,0,0-14-9.6c21.43,19.77,43.76,38.49,65.79,57.56-.56.64-1.12,1.29-1.69,1.93-3.1-2.76-6.47-5.29-9.25-8.35-4.94-5.42-10.48-9.68-17.73-11.42-.6-.14-1.54-.55-1.6-.94-1.22-7.94-9-9.94-13.6-14.68-2.71-2.77-6.73-4.25-10.13-6.37-1.12-.7-2.7-1.34-3.12-2.38-3.5-8.69-12.92-11.27-18.57-17.89-2.17-2.54-5-5.89-8.53-7.64-.87-.43-2-.42-2.82-.87-1.12-.59-2.53-1.2-3.07-2.21a51.73,51.73,0,0,1-2.57-6.87l-5.07,3.26c-.56-2.14-1-4-1.32-5.08-2.58-1.22-5.23-1.88-7.1-3.46-8.69-7.32-17.21-14.84-25.64-22.45-1.26-1.14-1.71-3.17-2.54-4.82-2.3-1.24-5.33-2.27-7.62-4.19-9-7.58-17.72-15.44-26.54-23.22a9.12,9.12,0,0,1-1.09-1.59l3.59-1.7c-3.34-5.37-8.53-7.58-14.8-8.22,2.79-3.66-.25-8.26-7.4-11.7l5,7-7.9-2.11c.94,2.9,1,5.42,2.32,6.77,7.08,7.37,14.48,14.43,21.71,21.67a13.26,13.26,0,0,1,1.71,2.91l.05-.06c-6.13-5.28-12.39-10.4-18.35-15.87-5.12-4.7-9.93-9.75-14.78-14.74a15,15,0,0,1-1.88-3.42l5.85,3.16c2.32-2.35,2.56-8.48-.54-12.2-3.45-4.14-7.76-7.58-11.7-11.32l-1.22,1c2,3.12,3.9,6.24,6.52,10.45-5.28-2.72-8.12-5.35-8.14-10.46a10.76,10.76,0,0,0-2.18-5.71c-2.86-4-6.67-5.46-11.94-2.34,4.41-4.28,3.28-6.78-.85-9.43a71.6,71.6,0,0,1-9.88-8.16c-6.63-6.16-13.33-12.26-19.55-18.82-2.49-2.63-6.9-4.07-6.73-8.81l-9.76-9.38c-2-.7-4.55-.85-6-2.18-7-6.45-13.71-13.29-20.67-19.83-2.54-2.39-5.4-4.44-8.15-6.59l.65-2.46c5.85-1,6.74,6.63,12.42,8.12-.69-1.68-.78-2.39-1.18-2.81-4.79-5-10.21-9.57-14.27-15.12-3.78-5.17-12.54-5.77-12.65-14.12,0-.51-1.19-1.09-1.9-1.5-2.2-1.27-5.86-2-6.39-3.79-1.75-5.82-6.11-9.13-10-13.13-4.59-4.74-8.56-10.07-13.06-14.89-.7-.74-3.27-.71-4.15,0-.71.58-.81,3.24-.11,4,3.05,3.39,6,7.44,9.92,9.36A18.92,18.92,0,0,1,831.23,1800c.32.94,1.76,1.43,2.5,2.29,2,2.31,3.92,4.71,5.87,7.07l.07-.06A9.42,9.42,0,0,1,837,1808c-6.46-6.16-12.85-12.39-19.25-18.61-1.62-1.58-3.2-3.2-4.79-4.81l-1.46,1.31c1.93,2.33,3.72,4.8,5.81,7q16.71,17.49,33.56,34.85c6.52,6.71,13.15,13.31,19.81,19.88,2.55,2.51,5.48,4.63,8,7.2,6.4,6.68,12.56,13.59,19,20.23,1.6,1.67,3.86,2.7,6.75,4.65,1.4,8.15,9,14.27,16.91,11.07v7.19l-2.32,1.43c9.16,8.46,18.19,17.06,27.52,25.32a161.82,161.82,0,0,1,20.21,20.68c-4.35-3.43-9-6.54-13-10.35-9.42-9-18.5-18.41-27.76-27.61-16-15.87-32.16-31.58-48-47.62-10-10.12-19.37-20.81-29.17-31.11-10.41-10.93-21-21.69-31.51-32.53-3.31-3.42-6.5-7-10-10.23-1.53-1.43-3.65-2.22-5.59-3.34a60.19,60.19,0,0,1-4.34-4.58c-4.73-6.13-11.35-11.35-10.51-20.3a72,72,0,0,1,1.82-8.23c2,1.47,3.77,2.74,5.51,4.06,3.06,2.32-.73,4.12-.5,5.8.61,4.24,2.24,8.34,3.46,12.49l2-.46c-.4-1.86-.81-3.72-1.26-5.83l3.62-1.51a85.07,85.07,0,0,0,5.49,9.62c.43.58,3.17-.54,6.27-1.16L747.68,1699l-1.62,1,2.94,8.45-5.34-4.88c0,2.33-.6,4.26.1,5.08,6.87,8,14,15.83,21,23.7l1.46-1c-1.22-2.55-2.45-5.09-3.8-7.89,4.71,3.32,3.78,3.66,5.51,8.33s5.42,8.51,8.52,12.52c2.2,2.86,5.54,5,7.06,8.16,1.15,2.38.22,5.76.22,9.56l-4.42-3.51c3-2.66,2.24-5.91-1.38-8.49a45.67,45.67,0,0,1-5.94-5.46c-5.84-6-11.79-11.88-17.36-18.1-3.16-3.53-5.57-7.72-8.52-11.45-1.16-1.45-2.89-2.45-4.36-3.65l-1,.85,3.9,6.61-.83,1-6.64-2.25c-3.28,5.39-7.19,11.56-10.84,17.88Q714,1756.76,702,1778.22c-1.92,3.43-3.18,7.23-5,10.71-1.24,2.33-3.14,4.29-4.51,6.57-8.2,13.63-16.4,27.26-24.45,41-5.24,8.93-10.08,18.09-15.34,27-5.85,9.89-12.12,19.52-17.94,29.43-12.3,20.92-24.32,42-36.65,62.9-6,10.16-12.45,20-18.73,30a6.21,6.21,0,0,1-3.4,2.76c1.82-3.66,3.43-7.44,5.49-11,10-17,20-34,30.06-51q13.8-23.37,27.57-46.75a23.59,23.59,0,0,0,1.57-4.56l6.73-8.94-1.29-1.55c-4.26,2-4.9,6.2-5.36,10.56-5.49,1.35-6.45,6.56-8.81,10.51-5.36,9-10.57,18-15.85,27l-1.49-.87q5.1-9.18,10.21-18.36l-1.41-.82c-4.46,7.5-8.91,15-13.85,23.3l4.89-1.22c-1.55,2.3-2.43,4.85-3.45,4.91-5.66.31-6.27,5.35-8.45,8.65-4,6.06-7.45,12.5-11,18.58l-4.43-2.76c2.13-4.87,4-10.5,6.93-15.51,3.39-5.78,7.76-11,11.67-16.44a8.68,8.68,0,0,0,.8-1.38c2.37-5,4.61-10.16,7.09-15.15,1.69-3.43,3.63-6.81,7-6,1-4.32,1.21-8.53,2.88-12.05,3.11-6.54,6.2-13.48,11-18.7,2.81-3.06,3-6.3,4.63-9.35,2.53-4.84,5.3-9.56,8.08-14.27,5.37-9.13,10.87-18.18,16.19-27.34,1.24-2.13,1.72-4.7,3-6.83,4-6.78,8.35-13.35,12.22-20.2,5.15-9.14,10-18.47,14.91-27.74a3.4,3.4,0,0,0,0-3.07L602,1908.43l-2.12-4.34-11.42,19.42,1.48.87q3.46-5.76,6.94-11.53l1.7,1-23.71,41-1.25-.52c1.45-2.85,2.88-5.7,4.34-8.54,1.55-3,3.12-6,4.68-9l-1.14-.66c-2.18,3.49-4.4,7-6.55,10.48-1.64,2.68-3.1,5.49-4.83,8.12-.47.72-1.68.93-2.49,1.46s-2,1-2.22,1.73c-1.15,3.27-2,6.66-3,10a42.55,42.55,0,0,1-2.27,4.69c-.69-1.63-1-2.36-1.3-3.1l-1.28.19c-.24,2.26-.39,4.52-.77,6.75-.22,1.27-.52,3-1.4,3.6-5.93,4-5.75,11.34-9.54,16.42-.89,1.21-2.47,1.91-3.59,2.74-2,4.42-4,8.85-6.07,13.25a2.82,2.82,0,0,1-1.32,1.42c-3.35,1.24-3.35,1.19-3.18,4.2a1.88,1.88,0,0,1-.2.91c-1.71.89-3.51,1.25-4.28,2.34-4.47,6.35-8.85,12.78-12.93,19.38-1.3,2.12-2.78,4.18-1.31,7.66.82,1.93-2.58,5.67-4.13,8.56a46.81,46.81,0,0,1-3.56,6c-.58.77-2.39.63-2.92,1.39-1.52,2.19-3.52,4.55-3.77,7-.52,5-3.09,9.46-7.88,11.71a5.93,5.93,0,0,0-2.12,2.51c-5,8.76-9.74,17.63-14.86,26.3s-10.53,16.87-15.67,25.38c-6.93,11.46-13.64,23.05-20.56,34.52-6.46,10.72-13.15,21.31-19.58,32.05-4.35,7.25-8.34,14.71-12.66,22-6.6,11.1-13.37,22.1-20,33.16-6,10-11.92,20-18,29.95-1.48,2.42-3.38,4.58-5.09,6.86l-1.36-.93Q435.31,2169,509.87,2043.11l-1.73-1L369.82,2274.85l-1.61-.92c4-7.14,8.17-14.23,12.1-21.43,2.93-5.36,5.61-10.86,8.4-16.29l0,.08c7.65-7.07,10.92-16.82,15.49-25.73,1-2,.52-4.88,1.91-7.46l1.75,2.77c3.44-5.87,6.69-11.38,9.89-16.91a2.83,2.83,0,0,0,.49-1.89c-2.22-7.31,3.31-11.11,6.88-16,.55.86.94,1.49,1.71,2.69l5.54-9.85c-7.47-3.62-6.52,5.36-11.25,6.9a25.27,25.27,0,0,1,1.34-3.6q14.4-24.34,28.9-48.63a41.7,41.7,0,0,1,3.36-4.29l-2.64,8,2.71-1c.17.88.32,1.66.59,3.09,3.71-5.85,7-11.08,10.21-16.11l-3.68-2.45-7.27,8.55c4.83-8.88,9.48-17.87,14.54-26.62,6.07-10.49,12.48-20.79,18.76-31.16.67-1.1,1.48-2.12,2.64-3.74.33,1.5.51,2.32.75,3.37a5.22,5.22,0,0,0,1.17-.9,70.89,70.89,0,0,0,4.22-6.13c1.25-2.18,4.1-4.31.75-7.17-.4-.35.1-2.22.64-3.11,6.76-11,13.62-22,20.4-33,2.15-3.5,4.13-7.1,6.2-10.65,1.22,4.54,3.47,1.27,4.18.12,1.44-2.33,2.12-5.13,3.31-8.25l-7.57,8.21c2.2-4.27,4.16-8.7,6.72-12.75,1.09-1.71,3.55-2.5,5.17-4a21.11,21.11,0,0,0,3.36-4.1c2.56-3.89,4.68-8.11,7.59-11.71,2.09-2.6,1.62-3.87-1.41-5,7.28-12.17,14.42-23.92,21.36-35.77,5.31-9.06,10.29-18.32,15.64-27.36,1.4-2.39,3.94-4.09,5.4-6.46a16.61,16.61,0,0,0,2.16-7.74c-5.14,5.79-7.67,13.5-15.29,18.1,0,.07.16,1.32.3,2.53-4,1.33-7.89,8-7.53,12.74l-1.29-.48c-1,2.16-1.84,4.4-3,6.48-1.39,2.48-3,4.87-4.59,7.21-.71,1-2.13,1.64-2.6,2.72-2,4.47-3.61,9.07-5.48,13.58-.63,1.51-1.21,3.35-2.41,4.24-4.76,3.53-6.23,8.89-8.35,13.92-.19.47-.23,1.17-.57,1.37-8,4.66-6.07,16-14.07,20.65a1.73,1.73,0,0,0-.83,1.19c.16,9.43-7.83,14-12.28,20.62a16.24,16.24,0,0,0-2.73,5.24c-2.05,9.69-7.85,17.2-13.85,24.64-.89,1.11-1.24,2.64-1.94,3.92-4,7.42-7.84,15-12.24,22.19-4.11,6.72-9,13-13.26,19.61-1.38,2.15-1.48,5.09-2.76,7.34-6.21,11-12.62,21.79-19,32.66-2.5,4.3-5,8.6-7.52,12.88-.59,1-1.15,2.58-2,2.78-6.28,1.53-5.65,8-8.71,11.83-1.71,2.13-2.75,4.8-4.45,6.95-2.47,3.14-3.78,6.67-5.34,10.21-2.1,4.74-4,10.59-9.37,14.22-3.28,2.21-5.61,7.25-6.39,11.39-1.32,6.9-4.5,11.58-11.19,14.55,3.34,3.68.84,6-1.9,8.39a4.29,4.29,0,0,0-1.47,2.65c-.37,2.72-1.81,3.69-4.06,5.32-3.44,2.48-5.61,7.06-7.64,11.09-3,5.93-3.09,13.12-8,18.27a54.66,54.66,0,0,0-6.75,8c-2.32,3.63-3.95,7.7-6,11.49-2.52,4.56-5.18,9.05-7.9,13.49-.15.25-1.42-.19-2.72-.4,4.6-9.17,9-18,13.43-26.76l-1.21-.65c-2.25,3.81-4.33,7.73-6.81,11.4-3.2,4.74-6.72,9.27-10.1,13.9-.39.53-1,1.12-1,1.66.16,8.1-6.59,12.78-9.66,19.29-3.92,8.3-9.28,15.94-14.12,23.8-3.48,5.64-7.12,11.19-10.69,16.77l-1.32-.6c1.4-4.8,2.8-9.6,4.59-15.76-7.33,10.52-13.92,20-20.52,29.48l-1.44-.68c.29-1.06.58-2.12,1-3.44H284.1c0-.76-.18-1.34,0-1.7,3-5.29,6.1-10.53,9.09-15.82a31.3,31.3,0,0,0,1.77-4.26,16.15,16.15,0,0,1,1.12-3.18c5.79-8.84,12.32-17.26,17.31-26.53a210.9,210.9,0,0,1,17-26.27,142,142,0,0,0,15.91-28c4.45-10.11,10.57-19.49,16.08-29.11,3.17-5.52,6.86-10.76,9.78-16.4,1.17-2.24.92-5.21,1.31-7.85L372,2193l-49.78,83.41-1.72-1q13.2-23.29,26.37-46.57l-4.44-1.81c.82-1.7,1.25-3.81,2.52-5,3.86-3.73,6.71-7.42,5.91-13.44-.26-2,2.7-4.34,4.28-6.36,2.63-4.87,5.07-9.85,7.92-14.58,3.7-6.12,8-11.88,11.54-18.09,5.6-9.84,10.74-19.94,16.16-29.88,1.07-2,2.51-3.7,2.81-6.2-11.84,14.19-21.44,30-32,45-10.79,15.35-21.49,30.77-32.54,46.61l-1.59-3.41-4.74,3.59.06.06c2-4.54,3.82-9.21,6.16-13.58,2.48-4.64,5.55-9,8.23-13.5.93-1.58,1.32-3.54,3.87-2.19.29.15,1.25-.43,1.55-.9,7.26-11.4,15-22.53,21.38-34.43,2.26-4.25,4.28-7.89,8.23-10.5.86-.57,1.35-1.69,2.77-3.55l-5.24,2.5L383.52,2124l8.11-1.18c.15-.81.81-2.08.5-3-1.62-5,1.79-7.84,5.05-9.79a30.7,30.7,0,0,0,13.75-18c2.84-10.47,12.43-16.3,14.48-26.61l3,1.08,26.1-45.18c-4.17,2.5-7.86,3.37-7.32,8.14.11.94-.81,2.25-1.62,3-4,3.63-6,8.46-8.35,13.13-1.75,3.45-4.39,6.47-6.78,9.57-3.61,4.67-7.47,9.15-11,13.89-2.21,3-4,6.27-6,9.41a19.35,19.35,0,0,1-2.57,3.78c-1.23,1.17-3.39,1.6-4.17,2.93-4.33,7.37-8.3,14.95-12.55,22.37-1,1.71-2.53,4.24-3.95,4.34-3.17.2-4.44,3.59-4,4.1,3.52,4.38-1.29,5.51-2.7,7.9.31-1.24.61-2.48.92-3.72l-.92-.41c-4,5.78-8.16,11.52-12.15,17.34-9.28,13.55-18.57,27.09-27.75,40.71-8.61,12.75-17,25.61-25.6,38.39-6.09,9.08-11.59,18.67-18.59,27-7.4,8.8-11.64,19.5-18.83,28.28-1.93,2.35-4.53,4.14-6.82,6.19l-2.13-1.84q15.36-23.39,30.74-46.77l-1.23-.8-46,65.91-1.85-1.23q4.11-6.33,8.24-12.64c-10.61,7.46-13,21.73-24.82,29.37.39-1.92.19-3.81,1-4.41,5.52-4.19,5.1-12.72,12-16,1.53-.73,2.25-3.57,2.94-5.58.94-2.77,1.53-5,4.9-6.55,2.69-1.25,4.19-5.27,6-8.2,2.86-4.68,5.39-9.57,8.31-14.21,5-8,10.18-15.86,15.37-23.72s9.87-15.88,15.7-23.11c6.83-8.49,10.85-18.73,17.82-27a48.25,48.25,0,0,1,4.26-3.93,11.43,11.43,0,0,0,2.26-2.3c2.69-4.74,5.14-9.62,7.93-14.3,2.35-4,5-7.72,7.58-11.53,4.77-7,9.5-14.08,14.39-21,5.71-8.09,11.77-15.94,17.24-24.19,1.24-1.87.66-5,.93-7.62-3.44,2.94-6.08,5.21-8.72,7.48l.06.06c.53-3.52,1.2-6.5,4-9.6,3.89-4.32,7.71-10.06,8.32-15.56a23.72,23.72,0,0,1,4.36-12.08c5.29-7.48,10-15.34,14.7-23.22,6-10.19,12.54-20.22,17.15-31.05,5.58-13.1,13.45-24.64,20.8-36.6,1.15-1.88,1.52-4.25,2.25-6.39l-1.4-.83c-2,3.12-4,6.3-6.18,9.34-1.91,2.69-4,5.22-6.07,7.82a11.69,11.69,0,0,0-1.1,1.78c-2,4.45-3.44,9.43-6.51,13a218.83,218.83,0,0,0-17.65,24.25c-2.41,3.75-6.62,6.28-6.26,11.52a1.08,1.08,0,0,1-.44.86c-7,2.93-7.83,9.17-8.34,15.5-.46,5.71-5.7,7.64-8.52,11.47-1.53,2.06-2.23,4.74-3.24,7.16-.5,1.19-.61,2.6-1.3,3.63-14.85,22.1-29.86,44.08-44.62,66.25-8.54,12.83-16.63,26-25.06,38.86-1.25,1.91-3.5,3.15-4.8,5q-13,18.85-25.84,37.87c-12,17.9-24.07,35.81-35.92,53.84-8.63,13.13-16.87,26.52-25.46,39.68-7.71,11.8-15.75,23.39-23.5,35.18-10.21,15.52-20.28,31.14-30.4,46.73-11.65,18-23.39,35.87-34.88,53.94-10.15,16-19.92,32.15-30,48.14-3.22,5.11-6.93,9.9-10.41,14.84l-1.16-.73c3.17-5.22,6.38-10.41,9.5-15.65,6.37-10.68,12.78-21.33,18.9-32.15.86-1.51-.44-4.3.46-5.74.69-1.08,4.08-.37,4.92-1.47,3.19-4.22,5.89-8.81,8.67-13.32q10.56-17.16,21-34.36l-.07.08,13.07-21.52.25-.17c4.91-6.82,10.05-13.49,14.67-20.5,9.76-14.79,19.26-29.74,28.83-44.65,2.07-3.23,4-6.54,6-9.81l-1.18-.8-12.52,17.19-.55-.32,4.43-9.47c5.27-3.6,6.94-9.43,9.19-14.9-6.51,2.87-6.24,9.88-9.13,15-3.73,4.6-7.76,9-11.13,13.85-4.14,5.95-7.71,12.28-11.57,18.42-3.31,5.26-6.49,10.62-10.13,15.64-1.5,2.06-4.07,3.33-6.72,5.4,1.29,5.89-2.15,10.57-6.45,15.5s-7.35,11.12-11.08,16.67-7.65,11.17-11.71,16.57c-.58.77-2.47.55-3.93.82.3-2.31.51-4,.87-6.85-8.32,5.48-1.61,11.54-2.14,16.62l-6-.8c4.9,5.67.13,9.4-1.9,13.19a87.7,87.7,0,0,1-7.78,11.51c-1.08,1.4-3,2.09-4.43,3.3-1.6,1.39-3.56,2.75-4.38,4.56-2.38,5.3-3.88,11-6.47,16.2-3,6-6.8,11.66-10.24,17.47l-1.75-.28c-1-4.27-1.91-8.54-2.66-11.87-2.34.69-5.11.76-6.67,2.16-2.28,2-3.81,5-5.42,7.67s-3.09,5.84-4.21,8c1.28.78,2.48,1.51,3.69,2.23,0,0-.09.32-.09.32-2,.94-4.24,1.6-6,2.9a9.1,9.1,0,0,0-2.72,4.17c-.44,1.28-.09,2.83-1,4.46l-1-2.17c-1.91,2.43-3.55,4.85-5.54,6.93-2.45,2.56-5.43,4.65-7.71,7.34-1,1.23-1,3.42-1.41,5.16-.2.78-.25,2-.77,2.23-7.55,4.23-11.81,11.36-16.62,18.11-1.37,1.93-4.13,2.88-6.33,4.23l-1.45-1.17,1.67-5.06-.74-.37q-6.24,8.73-12.47,17.45L0,2571.11c1.56-2.79,3.13-5.58,4.67-8.38,4.7-8.47,9.11-17.11,14.17-25.37,3.58-5.83,8.16-11,12-16.73,1.64-2.43,2.41-5.43,3.86-8,.65-1.16,2.21-1.8,2.94-2.94,5.32-8.2,10.65-16.41,15.73-24.75,4.36-7.15,8.17-14.64,12.64-21.71,3.59-5.68,7.8-11,11.72-16.43.8-1.11,1.54-2.26,2.25-3.43q7-11.64,14-23.29c2.13-3.56,4-7.28,6.29-10.74,2.51-3.81,5.34-7.43,8.06-11.11,1-1.32,2.2-2.48,3-3.88q8.28-13.85,16.43-27.76c4.85-8.27,9.49-16.67,14.51-24.84,3-4.86,6.69-9.29,9.8-14.09,3.68-5.7,6.83-11.76,10.65-17.36,4.65-6.84,9.81-13.32,14.61-20.06.95-1.35.94-3.37,1.88-4.74,5.21-7.69,10.72-15.19,15.85-22.93,3.42-5.17,6.33-10.67,9.55-16a37.84,37.84,0,0,1,3.46-4.79c2.69-3.21,6.71-5.59,6.18-10.74-.08-.78.87-1.73,1.46-2.51,3.93-5.22,8.65-10,11.69-15.72,5.72-10.76,11.82-21.15,19.56-30.6,2.2-2.69,3.35-6.2,5.18-9.22,5.18-8.5,12.31-15.61,16.49-24.92,2.83-6.29,7.65-11.65,11.34-17.58,3.35-5.37,6.23-11,9.57-16.4,1.91-3.06,4.32-5.82,6.53-8.69,1.2-1.56,3-2.89,3.58-4.63,1.19-3.76,2.66-7,6.64-8.46a2.29,2.29,0,0,0,1.3-1.43c1.18-7.56,5.19-13.4,10.26-19,2.64-2.89,3-7.89,5.75-10.64,4.66-4.73,5.9-11.29,10.31-16.19s7.34-11.25,11.21-16.75c2.71-3.85,6.07-7.24,8.87-11,1.23-1.66,1.66-3.89,2.69-5.72,1.89-3.36,3.85-6.67,6-9.88,1.45-2.17,3.52-4,4.8-6.21,3.67-6.41,6.85-13.1,10.63-19.44,5.26-8.81,10.76-17.48,16.39-26.06,3-4.55,6.64-8.65,9.62-13.2,2.15-3.27,2.93-7.76,5.65-10.26,4.82-4.41,5.92-10.76,9.76-15.56,3.4-4.25,7-8.44,9.77-13.09,4.24-7.11,7.88-14.6,11.7-22,.14-.26-.58-1-1.44-2.33-2.3,3.57-4.23,6.62-6.21,9.63-.63,1-1.18,2.24-2.09,2.64-3.21,1.41-4.26,3.68-4.29,7.1s-1.11,3.41-5.11,5c-2.07.84-3.16,4.07-4.72,6.2-1.45,2-2.93,3.9-4.4,5.85l-1.45-1c3-4.84,5.91-9.76,9.05-14.52q11.07-16.7,22.32-33.26c2.93-4.33,5.07-10.35,9.18-12.45,7.22-3.7,8.88-11.29,14.22-16,.52-.46.5-1.52.85-2.67l-3.79.39c-.33-.34-.65-.69-1-1,1.17-1.5,2.17-4,3.55-4.28,2.52-.42,2.58-1.79,3.54-3.57,4.56-8.47,9.55-16.72,14.58-24.92.64-1,2.67-1.13,3.71-2a50.86,50.86,0,0,0,7.28-7.32c1.73-2.36,2.59-5.36,3.83-8.07ZM204.72,875.24q2.46,7.07,4.9,14.13c.1,1.32-.14,2.77.34,3.93,3.22,7.88,6.57,15.7,9.95,23.5a11.68,11.68,0,0,0,1.91,2.42l1.24-.63c-2.49-6.09-4.83-12.25-7.53-18.24-1.7-3.77-4-7.3-6-10.93l-4.91-14.13a24.78,24.78,0,0,0-6.09-15.07l-1.27.58Q201,868,204.72,875.24ZM241.58,977.4l-4.92-14.21-2.08.9,7.06,13.26q3.59,9.66,7.15,19.34l2.52-1.11Zm278,419c-1.77-5.2-4.3-9.86-9.64-12.54l9.72,12.47c3.39,6.68,7,13.18,12.71,18.13l1.62-1.26Zm-331.91,916c-2.56,2.86-5.45,5.5-7.61,8.63-3.34,4.82-6.19,10-9.25,15l1.45.86,15.34-24.54,9.86-14.3-1.93-1.12Zm520.89-588.14c3.34-1.51,5-4,6.3-7.58,2-5.58,5.12-10.78,7.76-16.14l-1.26-.62q-6.36,12.19-12.73,24.4l-7.07,10.87,2.22,1.1Q706.19,1730.29,708.57,1724.27Zm-482,532c1.19-.71,2.68-1.18,3.52-2.18a48.53,48.53,0,0,0,4.44-6.45c2.46-4.13,4.78-8.34,7.15-12.52l-1.19-.74c-5,7-10.59,13.7-13.85,22l-11.92,16.42C220.72,2271.83,226.5,2262.79,226.58,2256.3Zm-127.91,197-2.33,7.75,10.51-9.5-1-1.18-7.22,3c.28-1.29.55-2.59,1.11-5.26-6.57,8.21-11.86,15.29-10.43,25.21,1.62-2.72,3.7-5.58,3.85-8.54C93.35,2460,94.87,2456.22,98.67,2453.32Zm546-668c-2.79,4.66-5.65,9.28-8.34,14-1.82,3.2-3.63,6.26-7.74,6.83-.11,0-.15.54-.24.89l3.13-.36c-1,2.8-1.9,5.22-2.79,7.64-2.13,3-4.15,6.19-6.43,9.12a59.45,59.45,0,0,1-5.15,5.08c.68,8.5-8.07,14.13-10.35,22.38l1.72.89,8.29-14.66,1.79.32c1.3-3.77,2.52-6.93,3.46-10.17,1.39-4.78,7.94-6.92,6.6-13,.93-.6,2.23-1,2.72-1.82,3.05-5.24,6.09-10.5,8.79-15.92,1.79-3.61,3-7.5,4.47-11.26l9.55-13.65-1.75-1.05ZM189.67,836.28q3,10,6.05,20l1.77-.65c-3.73-6-.94-14.46-7.9-19.27-3.45-12.11-6.29-24.47-14.71-34.53,2.31,6.61,4.84,13.13,7.65,19.54C184.74,826.41,187.28,831.31,189.67,836.28Zm348,1024.13L535,1851.5,522.62,1875l1.33.78,8.72-13.36,1.35.78q-2,4.65-4,9.3l1.57.75,6.06-12.91c5.67-8.76,11.69-17.36,13.82-27.68l-1.52-.73-8.27,4.76c2.08,1,4.12.66,4.54,1.31.61,1,.34,2.76-.09,4-.64,1.87-1.83,3.54-2.65,5.35C541.48,1851.71,539.59,1856.06,537.68,1860.41Zm-166.16-680c1.1-3.56-1.88-8.58-7.55-11.39l7.64,11.34a32.72,32.72,0,0,0,2,5.52q7.67,13.32,15.6,26.5c3.25,5.41,6.72,10.69,10.09,16l1.13-.58c-.4-1.36-.43-3-1.25-4-6.32-7.83-8.65-17.92-14.9-25.84-3.42-4.34-5.82-9.48-8.9-14.12C374.49,1182.44,372.84,1181.53,371.52,1180.4Zm-157.95,1107-1.38-3.37c1.26-2.73,2.33-5,3.34-7.2l-4.3-3.38-8.15,12.69,10.56,1.2-1.72,9.67,4.68-5c-1,3-1.73,5.16-2.47,7.36l1.27.58,44.68-69.79-1.34-.94-8.26,10.55v-3.91c-2.38,2.5-5.14,4.87-7.18,7.75-1.09,1.55-.94,4-1.35,6a38.85,38.85,0,0,0-4.16,3.59c-2.93,3.31-5.7,6.77-8.53,10.17-.79,1.79-.31,5.85-1.7,6.64-6.11,3.49-8.25,9.45-11.17,15.06C215.87,2286.05,214.53,2286.63,213.57,2287.41ZM878.18,864.64a.87.87,0,0,1-.53,1.58,44.86,44.86,0,0,1-5.19-.45c-2.71-.44-5.39-2-8-1.87-5.05.32-10,1.61-15.07,2.31-1.22.17-3.06.06-3.74-.7-5.19-5.74-10.61-3.65-16-1.71a.87.87,0,0,0,.16,1.67l1.72.27a.87.87,0,0,1,.73.93v0a.87.87,0,0,1-1,.77c-2.66-.28-5.34-.47-8-1-1.61-.31-3.17-1.87-4.66-1.75-9.1.72-18.19,1.69-27.27,2.75-4.7.54-9.36,1.39-14,2.12a.87.87,0,0,0-.72.73l-.12.79c6.14-1,10.76,1,15.06,5.66a.87.87,0,0,1-.7,1.45l-4.79-.31-.48,3.07,1.06.27a.86.86,0,0,1,.65.93v.12a.86.86,0,0,1-.69.76c-1.67.31-3.36.84-4.94.61-4.4-.65-8.7-2.07-13.11-2.61-16.43-2-32.85-4.13-49.33-5.52-11.31-.95-22.71-1-34.08-1-9.45,0-18.91.57-28.37.8-3.63.09-7.27,0-11.24,0a1.29,1.29,0,0,0-.86,2.25l.33.29a1,1,0,0,1-.69,1.73A684.33,684.33,0,0,1,451,850.07l-.34,4.31c-2.19-3.74-2.11-3.56-4.72-5.91-3-2.65-8-3-12.31-4.32,2.77,10.32,5.65,19.77,7.74,29.39.92,4.23,1.47,9.3-.05,13.09-1.61,4,.38,5.76,2.15,8.13.13-1.27-.77-2.31-.78-3.36s.9-2,1.41-3.06l1.36.24c1.4,5.75,2.81,11.5,4.17,17.26.11.46,0,1.37-.14,1.42-4.17,1.1-1.09,3.74-1.2,5.65a31.76,31.76,0,0,0,0,7,55.56,55.56,0,0,0,2.41,7.51l1.06-.52-1.23-13.19,1.51-.26c3.88,15.94,7.76,31.87,11.8,48.44l-5.4-1.29c.63,6.18.46,12,1.93,17.39,2.74,10,6.22,19.87,9.78,29.65,5,13.68,10.34,27.22,15.49,40.84,3.47,9.13,6.58,18.42,10.38,27.41,6,14.33,12.57,28.44,18.81,42.69,6.63,15.15,12.9,30.47,19.81,45.5,6.66,14.46,14,28.62,20.9,43,8.22,17,16.19,34.15,24.52,51.11,3.91,8,8.44,15.62,12.61,23.46,8.24,15.48,16.22,31.11,24.7,46.46,7.69,13.93,15.9,27.57,23.91,41.33,11,18.88,21.85,37.84,33.08,56.58,5.56,9.26,11.82,18.1,17.75,27.1,4.22-7.66,8.31-15.38,12.67-23s6.35-16.34,13.56-22.48c3.55-3,5.26-8.3,7.59-12.67a69.05,69.05,0,0,0,2.94-7.22l-.53-.34-3,3.28-1-.78c3.24-4.57,1.62-11.93,9.24-14.17,1.2-.36,2.47-3.46,2.26-5.11-.66-5.14,1.68-10.47,6.16-12.36-.74-6,4.3-17.88,8.2-18.34,1-3.42,1-7.84,2.87-8.91,5-2.84,5.9-7,6.84-11.91,1.56-8.14,2.82-16.55,10.75-21.79,1.51-1,3.12-4.52,2.49-5.61-2.45-4.27.2-7.48,1.6-10.68,10.67-24.52,21.84-48.82,32.37-73.4,11.26-26.27,22.13-52.71,32.88-79.19,5.19-12.79,9.78-25.82,14.43-38.82.56-1.56-.18-3.58-.32-5.39-2.2,1.79-2.8,4.48-3.88,4.69-4.11.79-4.42,4.09-5.47,6.92-1.61,4.36-2.9,8.84-4.59,13.16-5.13,13.11-10.23,26.22-15.62,39.22-8.18,19.74-16.41,39.47-25,59-4.9,11.24-10.67,22.1-15.68,33.29-2.76,6.19-4.37,12.89-7.17,19-6.84,15.08-14.21,29.91-21.1,45-5.22,11.39-9.78,23.08-15.08,34.43-7.73,16.54-15.84,32.91-23.89,49.3-.59,1.2-2,2-3,3l.07.06a26.67,26.67,0,0,1,1.26-5.27c5.61-12.12,11.5-24.11,17-36.28,4.83-10.71,9.24-21.6,13.83-32.41,3.33-7.85,6.46-15.78,10-23.53,6.46-14.17,13.29-28.17,19.7-42.37,5.66-12.55,11-25.26,16.41-37.92,6.67-15.59,13.44-31.14,19.91-46.82,5.47-13.25,10.5-26.68,15.86-40,3.2-7.92,7-15.61,9.92-23.63q8.09-22.38,15.37-45c6.76-21,13.9-42,19.5-63.33,5.53-21.13,9.86-42.63,13.77-64.14,3.65-20.07,6.15-40.35,9-60.57.73-5.27-1.85-8.55-7.37-9.71a.87.87,0,0,0-.85,1.41l5.95,7a.85.85,0,0,1,.16.86,8.56,8.56,0,0,1-1.64,2.88c-.42.44-2.49-.26-3.5-.91-2-1.31-3.91-2.8-5.82-4.27a.86.86,0,0,1,.29-1.52l2.19-.6a.87.87,0,0,0,.35-1.48l-3.37-3a.87.87,0,0,0-1-.13l-3.42,1.72a.86.86,0,0,0-.09,1.49Zm-663.64,20c2.26-5.72-32.74-95.35-38.29-98Zm415.18,668.88,1.77-1.63-60.79-77.61c.09,1.7-.39,3.65.36,4.82,1.87,3,4.36,5.53,6.5,8.34,7.13,9.35,14.06,18.87,21.37,28.09,8.63,10.9,17.59,21.55,26.39,32.33C626.83,1549.74,628.26,1551.66,629.72,1553.55Zm174.41-313.36-1.89-.86q-20.78,44-41.56,88l2.43,1.13Q783.62,1284.32,804.13,1240.19ZM513.41,1397.37l-1.57,1.4,53.33,74.1,1.34-.86c-1.76-3.49-3.06-7.31-5.36-10.4-6.09-8.17-12.69-15.95-18.92-24q-6.19-8-11.88-16.39c-3.62-5.35-6.79-11-10.44-16.34C518.06,1402.16,515.6,1399.86,513.41,1397.37Zm62.17-530.91,20.73,1.94a.29.29,0,0,0,.32-.26c.16-1.28.31-2.48.53-4.28a.3.3,0,0,1,.47-.2c2.23,1.67,6.93-.28,5.3,5a.29.29,0,0,0,.39.35l11.41-4.43a.29.29,0,0,0-.08-.56l-46-4.28a.29.29,0,0,0-.19.53c4.68,3.22,7,4.85,6.9,5.89A.28.28,0,0,0,575.58,866.46ZM276,2196.27c-5.18-1.14-5.12-3.53-2.68-7.2,2.1-3.17,3.51-6.8,5.23-10.23l-1.77-1q-8.9,14-17.77,27.92l1.79,1.29c1.74-2.44,3.88-4.69,5.14-7.35,1.39-3,2.82-3.69,6.19-1.46-8.88,4.28,1.3,7.2-.16,10.8C279.23,2206.72,273.6,2200.72,276,2196.27ZM468.13,843.34l-.26,1.52,42.42,11.38a.3.3,0,0,0,.35-.4c-.94-2.5-1.34-4.28-2.31-5.68-2.2-3.19-7.66-2.92-9.12.64a.29.29,0,0,1-.34.18l-9.24-2.46.46-2.08,3.71.67c.08-.44.17-.88.25-1.33-4.32-.79-8.63-1.63-13-2.34-1.23-.2-3.36-.45-3.64.08-1.74,3.29-3.66,1.72-5.78.68A17.11,17.11,0,0,0,468.13,843.34Zm27.08,1052.83,1.8,1.31c10-13.61,19.7-27.35,24.48-44Zm18.48-2.29c4.83,2.51,4.1-1,4.62-2.77a38.49,38.49,0,0,0,.83-4.58c4,.81,3.22-2.58,4.22-4.35-8-2-7.65,6-11.45,9.55l-1.52-3.06-1.57-.24c3.7,10.09-4.55,16.36-7.27,25.86,2.9-2.47,5.52-3.71,6.52-5.75C510.38,1903.8,511.91,1898.68,513.69,1893.88ZM497,1378.65l1.12-1c-4-6.09-8-12.16-12-18.29-5.8-9-11.47-18.11-17.37-27.06-1.18-1.79-3.14-3.06-4.74-4.56l-1.05,1.13Zm-173.46,806.4c-3.31,1.89-1.67,4.48-1.48,7,.17,2.21.1,4.93-1,6.68-4.54,7.07-9.55,13.82-14.31,20.75a57.93,57.93,0,0,0-3,5.34l1.22.74L329,2190.36C323.59,2191.2,323,2190.58,323.55,2185.05Zm-61.85,42.71c3.63-5.6,6.89-10.65,10.15-15.7l-1.22-1.2c-1.58,1.38-3.14,2.81-4.77,4.13-.85.7-1.81,1.68-2.78,1.75-5.16.4-10.19,7.31-9.23,12.93C256.89,2230.38,256.14,2220.44,261.7,2227.76Zm201-264.8,1.9,1.11,15.63-29.38L479,1934C472,1942.78,465.83,1952,462.72,1963Zm454.73-95.48-1.36,1.59,35,34.7-.68.63ZM1230.58,859.91c6.38,0,12.8.41,19.12-.22,2.31-.24,6.58.92,7.61-4.82C1247.89,857.26,1238.43,854.59,1230.58,859.91ZM635.49,1712.39c-2.22,4-4.19,7.31-6,10.74s-3.23,6.81-5,10.11c-1.73,3.14-5.05,5.62-4.55,10.55C625.6,1738.69,637,1715.93,635.49,1712.39Zm621.32,388.41-1.38,1.85,30.66,22.63,1.32-1.78ZM343,2070.17l4.63,3.24c2.05-3.06,4-6.29,6.25-9.28,2.48-3.31,1.77-5.24-2.15-6.31Zm260-216.56c-3.27,8.31-6.34,16.13-9.42,24l2.43.87c1.17-3.56,1.89-7.36,3.62-10.62,2.5-4.69,2.79-11.13,9.56-12.85,1.1-.28,1.8-2.16,2.73-3.35Zm29.73-985.86-.1-2.17h-8.36a.29.29,0,0,0-.09.57c6.44,2.49,7.1,4,6.29,10.41a.3.3,0,0,0,.29.34h2.09l.86-3.86-.09,0a.28.28,0,0,1-.16-.19c-.37-1.36-.79-2.95-1.25-4.66a.3.3,0,0,1,.26-.38ZM310.59,1071.18l1.4-.7-20.5-41.2-1.42.72Zm413.57,335.13-14.64,29.09C715.18,1431.09,725,1411.37,724.16,1406.31ZM450.43,2127.14c-9.34,9.9-10.19,12.42-7.14,19.14,2.53-4.64,4.85-8.92,7.18-13.19l-.83-.46-3.09,3.27-.55-.4Q448.22,2131.32,450.43,2127.14ZM1082.06,2025c.34-.38.69-.76,1-1.15l-31.87-28-1,1.18Zm-595.23-25.53-16.51,28.62C479.29,2020.11,488.07,2004.19,486.83,1999.47Zm-234,218.27c-8.47.36-9.77,7.5-14.12,12.73C246,2228.19,251.7,2225.59,252.83,2217.74Zm212.75-328.28-1.17-.4c-3.41,2.74-7.68,4.9-10,8.38-2.12,3.22-2.13,7.84-3.07,11.85l.74.28Zm228-432.51c11.14-3.58,8.74-12.54,12-18.73l-1.44-.71C700.82,1443.64,697.5,1449.78,693.61,1457ZM101.73,2443.86l1.28.79,21.9-34.65-1.37-.85ZM544.86,857.46c4.52,5.19,15,8.33,21.92,6.69a.3.3,0,0,0,0-.58l-11.52-2.07a.3.3,0,0,1-.24-.24c-.91-5.87-5.28-4.32-9.9-4.28A.29.29,0,0,0,544.86,857.46ZM185.47,2325.2c-3.45-.11-11.69,10.69-11.82,16.19C177.68,2335.52,185.32,2333.25,185.47,2325.2ZM338.39,1123.29l1.64-.9-16.45-29.55-1.32.72Q330.33,1108.43,338.39,1123.29ZM595,1352.35l1.32-.77L582,1326.1l-1.64.93Zm-46.78,453.23-1.3-.59-11.11,17.69c-.29,1.73-.78,4.6-1.26,7.47l.62.28Zm106.59,42.6,2,1.08,11.59-21.44-2.06-1.09Zm-234.6-589-1.3.8,14.54,23.26C432.59,1273.07,424.79,1267.11,420.17,1259.21Zm54.74,607.53c-6.13,5-7.6,9.66-5.06,15.82C476.07,1878.77,471.82,1871.54,474.91,1866.74Zm-177.54,281,1.25.58c1.56-2.22,3.52-4.28,4.48-6.74.44-1.1-1.14-3-1.8-4.52-1.17.71-2.67,1.17-3.44,2.19a60.51,60.51,0,0,0-3.85,6.86l4-2.26C297.75,2145.37,297.56,2146.55,297.37,2147.73Zm150.32-277.81,1.39.3,3.69-14.16a9,9,0,0,0-4.37,3.42c-1.2,1.53-2.3,3.14-3.59,4.93C445.61,1865.93,446.65,1867.92,447.69,1869.92ZM596.92,1814c7.9-5.5,11.22-11.93,9.21-16.93ZM380.05,1205.2l-1.24.67,14.66,24.87,1.59-.93ZM130.11,2399l1.42.85,16.67-26.12c-.44-.28-.87-.57-1.3-.86Zm1222.06-189.81,1.12-1.41L1332,2193l-1.15,1.63Zm-870.81-265.4c6.4-6.26,9.87-13.17,9.1-17.47C487.75,1927.32,483.49,1935.3,481.36,1943.79Zm-25.49-62.49c6.44-.31,11.23-7.18,8.43-12C461.54,1873.26,458.84,1877.1,455.87,1881.3Zm82.22-45.49,1.26.65,11.09-21.37-1.45-.75C546.65,1822.17,538.92,1827.19,538.09,1835.81Zm18.07-388.14,1.31-1-15.08-20.88-1.47,1.08Zm-45-43-1.42,1.06,15.48,21.59,1-.72Zm216.33-6.14,1.83.76,10.38-20.44-1.6-.8ZM876.29,1842c1.44,4.67,11.82,14.43,15.33,14.13l-1.46,1.43Zm-515.23,206.9,2.2.35,5.23-9.26c-3.22.23-6.13.63-7.2,2.25S361.06,2046.62,361.06,2048.89ZM1264.84,865.61l.12,1.24,30.2-2.7c-.05-.48-.1-1-.14-1.45ZM447.6,1305.73l1.58-1q-6.26-9.75-12.5-19.5l-1.2.74ZM341.35,2104.79l-.81-.7-4.21,4.41c-1-.85-2-1.72-2.94-2.58l-1.76.43c.25,2.76.49,5.52.74,8.29l1.77.26Zm19.77-37.16,8.22-13.61C362.18,2057.23,359.21,2061.9,361.12,2067.63ZM557.8,1807.56l1.38.72,12.1-23.63-1.42-.73ZM465,1969.34l-1.52-2.3c-2.26,1.25-4.84,2.17-6.66,3.89-.82.78-.13,3.14-.13,6.06Zm133.44-338.46-1.9-1.14-9.87,16.78,1.19.7Q593.09,1639,598.39,1630.88ZM529.47,853.61a.29.29,0,0,0-.29.47c2.23,2.72,3.69,5.5,5.76,6.06,1.42.39,3.66-2.24,5.71-3.92a.29.29,0,0,0-.13-.52Zm672.83,6.79v3l8.19.34c-.29-1.31-.5-3.73-.88-3.75A51.47,51.47,0,0,0,1202.3,860.4ZM908.68,1422.93c-6.82,1.64-8.37,4.72-5.65,9.18ZM488.53,1862l.51,1.6c1.3-.27,3.27-.1,3.8-.88,1.92-2.87,3.36-6,5.55-10.18C491.76,1853.42,493,1860.64,488.53,1862Zm-8.24,2.54,1.26.4a82.85,82.85,0,0,1,4.46-7.28c2.18-2.86,1.27-4.32-2-5.47C482.73,1856.45,481.51,1860.52,480.29,1864.58ZM330.15,2098.72l-1.45-.95-10,15,1.71,1.1Zm966.5-1243.81c-.13-.64-.26-1.27-.38-1.9-4.25,2.86-10.42-5.45-13.85,3.49ZM491.86,1988.84l1.52,1q4.56-7.41,9.11-14.84l-1.36-.84ZM339.27,2205.71l-1.51-1L328,2219.16l1.64,1.09Q334.48,2213,339.27,2205.71Zm949.65-10.52,1.37-1.62c-2.06-2.12-4-4.32-6.26-6.29a2.6,2.6,0,0,0-2.43.57c-.4.66-.35,2.29.14,2.67C1284,2192.23,1286.5,2193.66,1288.92,2195.19ZM497.76,1159.46l1.63-.76-7.65-16.17-1.28.6Q494.11,1151.29,497.76,1159.46Zm22,44.13-1.35.59,8.45,16.66,1.16-.6Zm-108.6,44.18,1.63-.55-9.74-15.69-1.33.79Zm106.13,515-1.58-.79-8,13.35,1.44.85Zm704.93-898.22c0,.4-.09.81-.14,1.21h13.57v-.57ZM821.39,1567.33l-1.28-.77-7.26,15.22,1.87.86Q818.05,1575,821.39,1567.33Zm-459.08-402,1.37-.8-8.58-14.92-1.44.84Q358,1157.93,362.31,1165.37Zm185.25,95.41-1.28.62q4.32,8,8.66,16l1.24-.67Zm-98,805.38,1.18.79,9.53-15.21L459,2051ZM334.16,1128l1.44-.76q-3.78-6.85-7.55-13.73l-1.42.78Zm324.28,678-1.24-.73-9.53,16.17,1.2.7ZM395,1957.71l1.48,1.06,9.46-13-1.42-1Zm-30.13-778.66-1.33.79q4.68,7.86,9.35,15.71l1.25-.74Zm593.8,729.4-1.2,1.13L969,1921.81l1.21-1.14ZM457.86,1321.56l2-1-9.34-12.75-.93.63Q453.73,1315,457.86,1321.56Zm59.73,533.06c3.82-3.34,6.72-7.12,8-11.71l-1.74-.84ZM394.5,2069c6.41-4.71,7.87-8.71,4.54-10.68Zm303.27-292.57c-6.21,3.59-8.25,7.36-6.37,10.08a46.77,46.77,0,0,0,3.32-4.15C695.7,1780.81,696.38,1779.12,697.77,1776.38ZM166.59,2352.29l-1.31-.83-8.35,13.59,1.65.95ZM290.8,2171.53l1.93,1,6.2-11-1.51-.8ZM232.47,958.29l1.31-.52-5.87-14.09-1.33.53Q229.52,951.26,232.47,958.29Zm214,1033.5c6.11-2.68,8.47-6.06,9.1-11.53ZM404,1244.92l-1.2.89,8.1,13,1.29-.85Zm-91.45-157.59.91-.66-7.65-14-.93.51Q308.72,1080.26,312.55,1087.33Zm76.25,994.5,4.3-11.44-1-.27-5,6.85C387.25,2077.33,387.8,2078.92,388.8,2081.83Zm86.83-193.54c-7.32,3-8.14,4.19-6.28,8.81C471.4,1894.22,473.32,1891.52,475.63,1888.29Zm142.79-12.21-1.37-.87-8.13,13.14,1.22.78ZM315.32,2145l-1.63-1.05-7.47,10.93,1,.74ZM550.94,867.29l.13-1a.28.28,0,0,0-.25-.32l-11.08-1.49a.3.3,0,0,0-.34.26l-.14,1.19a.29.29,0,0,0,.25.33l11.11,1.34A.28.28,0,0,0,550.94,867.29ZM448,1316.41l1.15-.66-7.28-11.49-1.2.77Zm-62.85,860.47-1.57-1-4.72,9.45,1.25.64Zm484.4-357c.18-.14.36-.28.55-.41l-8.81-9.34-1.3,1.3ZM580.86,1386.4c-.08,1-.28,1.59-.11,2,1.31,2.93,2.7,5.82,4.12,8.86C586.35,1393.71,585.48,1391.3,580.86,1386.4Zm418.08,563.68,1.14-1.18-9.56-9.16-.26.31Q994.6,1945.08,998.94,1950.08ZM518.42,855.63l5.78-2.77a.29.29,0,0,0-.09-.56l-8.9-1.1a.3.3,0,0,0-.27.48l3.12,3.87A.32.32,0,0,0,518.42,855.63Zm44.92,434.71-1.6.8,5.58,10,1.13-.6Q565.9,1295.42,563.34,1290.34Zm-28.08,613.58c4.21-1.65,5.94-4.53,5-9.84C538.25,1898,536.75,1901,535.26,1903.92Zm-122.54,68.26c-5.3,2-5.73,3-3.71,7.44C410.36,1976.93,411.54,1974.55,412.72,1972.18Z"/><path d="M612.69,75.41c-5.19,3.69-5.36,9.9-7.62,15.06-1,2.38-2.36,4.63-3.86,7.53a38.77,38.77,0,0,1-1.25,6c-5.94,16.49-12,32.93-18,49.41-2.47,6.82-4.75,13.71-7.24,20.93l-2.09-1.79-18.41,51.72-1.39-.42c1.14-4,2.09-8,3.43-11.89,6.68-19.27,13.31-38.56,20.24-57.74,7.6-21.08,15.52-42,23.27-63.06,1.37-3.73,2.34-7.62,4-11.21,1.09-2.38,3.07-4.35,5.13-7.16-1.94-2.5-1.71-5.48,2-6.6.51-3.48.45-6.41,1.39-9,5.19-14,10.56-27.92,16-41.83,2-5,4.27-9.93,6.64-15.39,4.64,5.84,1,10.62-.62,15.37-2,6-4.48,11.88-6.75,17.81l1.75.78q4.8-10.92,9.61-21.86l1.15.49-1.59,6.15.69.19L649.07,0l1.74.67q-2.43,7-4.85,14.05l1,.43L653.47,2l1.79-.17c.36,1.6.85,3.19,1,4.82s-.57,4,.2,4.59c4.42,3.29,2.34,6.91,1.13,10.62a6.24,6.24,0,0,0,.11,4.25L661.14,22l1.08.24-3.87,17.5,1,.23,5.92-10.28,1.46.35c-.24,3.15-.61,6.29-.68,9.44-.05,2.71-4,6.07,1,8,2.67,1,5.55,1.57,9,2.52-.38,1.34-1,3.68-1.71,5.94-1.24,3.66-.88,5.83,4.51,3.88-.91,5.84-1.73,11-2.61,16.62,7.19-1.82,7.07-1.8,8,4.77.49,3.37,1.49,6.66,2.21,9.77L693,87.09l1.45,1.08c-.54,2.4-1.07,4.81-1.7,7.62,3.42.87,4,3.42,3.17,7-.86,3.72-2.66,7.78,2.64,10.35.86.42.12,4.12.12,7l1.75,1v50.14l1.28.16,2-10.74,5.68,5.82a31.88,31.88,0,0,1-.89,4.9c-2.19,6.95-.21,12.76,4.36,18.09.81.95.78,2.65,1.06,4,.22,1.13.31,2.28.63,4.68,2.5-4.72,4.32-8.15,6.13-11.58h1.61c.7,4.11,1.4,8.22,2.17,12.76l8.93-4.47c.33.47.89.94,1,1.51,1.83,8.15,3.7,16.29,5.33,24.49.52,2.63,1.69,4.24,3.5,6.33,2.4,2.78,2.3,7.68,3.45,11.63,1.39,4.76,3.33,9.39,4.32,14.22.56,2.73-.31,5.75-.57,9l3.26-.58c.92,17.28,1.83,34.35,2.77,52l4.73-.83c0,.48.23,1,.08,1.32-4.43,10.27-1.14,20.59-.24,30.89.47,5.3.71,10.65,1.68,15.86,1.33,7.13,3.32,14.13,4.89,21.22,1.1,4.91,2,9.86,2.92,14.81.5,2.64.68,5.36,1.36,7.95,3.95,15.05,7.9,30.11,12,45.12,3.71,13.39,7.37,26.82,11.72,40,1.19,3.61,4.95,6.32,7.23,9.66,2.6,3.81,4.59,8,7.31,11.75,3.89,5.32,8.2,10.34,12.36,15.47.52.64,1.45,1.07,1.73,1.77,1.38,3.5,4.3,7.52,3.49,10.48-1.23,4.52-9.38,5.93-14.36,4.13-4.11-1.48-8.41-2.42-13.41-3.82-.14,2.66.25,4.48-.41,5.75a20,20,0,0,1-4.68,6.11c-.6.51-3.15-.68-4.37-1.65-5.69-4.53-11-9.57-16.92-13.8-2.83-2-6.6-2.91-10.07-3.84-18.31-4.89-31.15-17-41.84-31.8-3.84-5.34-6.81-5.69-10.24.18-2.54,4.35-5.48,4.34-9.58,3.35-3.63-.87-7.46-.91-11.14-1.58a19.94,19.94,0,0,1-5-1.9c-3.64-1.78-7.26-3.6-10.82-5.55-1.24-.68-2.14-2-3.39-2.61-2.78-1.39-5.66-2.6-8.55-3.73-2.07-.8-4.34-1.14-6.33-2.09s-3.76-3.05-5.9-3.63c-6.11-1.68-9.06-6.36-11.92-11.31-.53-.91-1.21-2.3-2-2.43-7.79-1.27-15.76-1.75-23.4-3.6-8.32-2-17.26-.62-25.14-5.53-3.88-2.42-9.14-2.53-13.59-4.17-8.77-3.23-17.55-6.5-26-10.36A10.7,10.7,0,0,1,542.33,435c0-4.3-2.14-6.67-5.65-9-15.52-10.42-21.47-25.8-22.08-43.91-.58-17.45,1.83-34.63,6-51.4,5.71-23.19,12.56-46.11,19.23-69.06,3.27-11.26,7.26-22.32,10.92-33.48l2-.1a19.1,19.1,0,0,1,0,3.55c-.88,4.53-1.78,9-2.87,13.52-1.23,5.07-1.62,10.83-4.46,14.8-1.52,2.13-4.28,3.9-4.77,6.83-.68,4.11-.74,8.32-1.18,12.48a6.61,6.61,0,0,1-1,2.51c-.32.54-1.16.85-1.33,1.39-1.88,6.24-3.69,12.5-5.63,19.14,2.48,1.23,3.84-.05,4.73-3,5-16.68,9.82-33.44,15.31-50,7.21-21.7,15-43.21,22.53-64.8,2.08-5.95,4.08-11.93,6.17-17.88a3.44,3.44,0,0,1,2.28-2.21c-.46,1.54-.91,3.08-1.36,4.62l1.2.45c.55-1.81,2-3.93,1.5-5.39-2.27-6.65,2.19-11.9,3.49-17.67C589.16,138,592.63,130,595.8,122c2.36-5.94,5.6-11.53,7.91-17.49,1.36-3.49,1.68-7.38,2.46-11.09l1.62.28c-.25,2.28-.49,4.56-.74,6.84,2.34-4.07,4.89-8.09,3.64-13.13-.87-3.53-.71-3.75,2.73-5.58a3,3,0,0,0,.84-2.58,19.33,19.33,0,0,0-1.65-3.89q5.22-9.63,10.43-19.26a11.5,11.5,0,0,0,2.58-5c.37-2.56-.06-5.23.22-7.81a21.72,21.72,0,0,1,1.58-4.66L626,38.1c-2.75,6.81-5.71,13.55-8.21,20.46C615.79,64.07,614.36,69.78,612.69,75.41Z"/><path d="M344.13,1185.91c-2.05-3.57-3.88-7.31-6.25-10.66-1.47-2.08-3.85-3.49-5.65-5.37-.87-.91-1.91-2.17-1.94-3.3-.22-6.5-4-11.19-7.33-16.31s-5.82-11.16-8.89-16.66c-1.08-1.94-3-3.4-4.18-5.3a33.42,33.42,0,0,1-2.77-6c-.7-1.81-.66-4.07-1.75-5.54-6.41-8.63-10.31-18.5-14.84-28.11-2.09-4.43-8.22-6.79-6.89-13.29.12-.58-2.33-1.58-3.48-2.52-1.6-1.29-3.46-2.66-.55-4.55l-.09-.06,9.78,10.66,1.29-.8L283.48,1063l1.39-.66L353,1187.75l-1.44.84c-8.81-15.51-17.71-31-26.4-46.56s-17.27-31.44-25.89-47.16l-2,1c2.3,4.36,4.62,8.71,6.88,13.08,6,11.57,11.78,23.23,17.94,34.7,3,5.65,6.73,10.94,10,16.45,4.06,6.82,8.14,13.64,11.91,20.62.72,1.33.08,3.4.07,5.13Z"/><path d="M1262.29,919.68l.11-.46,4.66.94c2.32-4.65,2.77-4.74,5.93-2,3.52-.32,6.2-1.1,8.66-.66,4.54.81,8.91,2.49,13.43,3.47,1.72.38,3.63-.16,5.45-.28a57.47,57.47,0,0,1,7.27-.41c11.52.79,23,1.73,34.54,2.64a4,4,0,0,1,2.24,1c-6.56,1-13.88-1.48-20.15,4.89,6,0,11.23,2.29,16-1.44a2,2,0,0,1,1.44-.28c5.54,1.09,11.07,2.23,16.6,3.36l-.09,1.27c-9.72.46-19.45,1.42-29.15,1.21-10.25-.22-20.46-1.76-30.71-2.41-9.85-.63-19.71-.85-29.57-1.25l-.09-1.38,9.73-1.64.31-2a15.43,15.43,0,0,0-11.54-.67C1263.31,924.92,1262.19,923.33,1262.29,919.68Z"/><path d="M303.81,1090.17C280,1047.51,260.35,1002.84,240,958.52l1.05-1c1.34,1.32,3.21,2.4,3.92,4,3.78,8.48,7,17.21,10.9,25.62,6.36,13.67,13.14,27.14,19.66,40.74,5.48,11.41,10.69,23,16.3,34.31,3.87,7.83,8.25,15.41,12.32,23.15a24.24,24.24,0,0,1,1.33,4.18Z"/><path d="M409.54,1284.07c-19-30.49-38.15-60.83-55.78-92.12l1.49-.91q27.88,46.05,55.79,92.1Z"/><path d="M344.13,1185.91v0c3.93,5.42,8.14,10.65,11.72,16.29,5.56,8.77,10.7,17.8,16,26.72.38.65.71,1.33,1.06,2l-1.48.91-29.11-46.33Z"/><path d="M413.47,1285.82l28.94,45.11-1.45,1-29.62-44.67Z"/><path d="M1164.28,921c-8.44-.25-17,.17-25-3.52l.42-1.54,24.83,3Z"/><path d="M375.12,1234.36c5.66,7.51,8.89,16.51,14.59,24l-1.88,1.17-14.65-23.72Z"/><path d="M422.48,1310.07,434,1327.8c-8.69-2.65-8.52-11.34-13.5-16.51Z"/><path d="M338.58,1154.2l-10.86-18.3,1.82-1.08,10.92,18.3Z"/><path d="M457.69,1354.25c-3.82-4.82-7.69-9.6-11.42-14.5a25.76,25.76,0,0,1-2.19-4.36l1.53-.82q6,9.87,12,19.74Z"/><path d="M454.93,1359.92c6.14,5.11,8.08,13,12.73,19.16l-1.18.79-12.67-19.19Z"/><path d="M524,1450.57c-2.24-6.92-9.83-9.92-12.29-16.68l1.61-1.17,12.51,16.49Z"/><path d="M542.66,1473.29q-8.31-9.88-16.61-19.76l2-1.53q7.29,10.66,14.56,21.35Z"/><path d="M481.17,1390.62,468.6,1372.9l1.53-1.14,12.46,17.68Z"/><path d="M1140,944.3l-6.75,2.44-2.6-4.14,4.28-4C1136.66,940.55,1138.22,942.3,1140,944.3Z"/><path d="M1220.53,918.41c1-.08,2-.12,3-.22,7.45-.78,8.31-.11,9.55,7.52-.31.1-.89.3-.89.28-2.06-5.29-7.29-5.76-11.57-7.65Z"/><path d="M490,1399.84l11.21,15.93-1.43,1L488.46,1401Z"/><path d="M568.75,1518.51l-9.88-13.27,1.34-1q4.95,6.66,9.89,13.34Z"/><path d="M1145.59,913.68c4-3.47,8.26-1.91,12.51,0Z"/><path d="M583,1535.52l-10.31-11.44,1.62-1.31q4.77,6,9.55,12.07Z"/><path d="M457.62,1354.31q4.5,6,9,12l-1.25.85c-3.19-3.87-7.35-7.09-7.66-12.9Z"/><path d="M554.61,1487.71l7.28,8.47-1.63,1.41-7.23-8.5Z"/><path d="M452,1335.67l6.12,8.14-1.5,1.15-6.28-8Z"/><path d="M592.71,1537.29l-9.22-8.71,2-1.7q3.6,5.23,7.18,10.48Z"/><path d="M546.81,1485.4q2.38,4.14,4.79,8.28l-.69.59-6.29-7.2Z"/><path d="M310.21,1101.68l-4.09-8,1.73-.9q2.13,4,4.25,8Z"/><path d="M417.91,1307.42l-3.49-7.66,1.31-.77,4.36,7.25C419.37,1306.64,418.64,1307,417.91,1307.42Z"/><path d="M542.59,1473.35l6.94,7.52-2.16,1.59-4.71-9.17Z"/><path d="M831.62,1137.37c.11,1.53.75,3.27.25,4.56-3,7.53-6.17,15-9.31,22.43q-3.59,8.49-7.18,17l-2.23-1,18.54-42.94Z"/><path d="M798.31,1215.91q6.53-15.35,13.06-30.69l1.37.59c-1.65,11.5-8.81,20.67-12.91,31.14Z"/><path d="M713.56,1391.26c-1.93,4.81-3.68,9.7-5.84,14.4-2.75,6-5.82,11.88-8.76,17.8l-1.15-.42a14.27,14.27,0,0,1,.69-3.52q6.39-13.15,13-26.2c.42-.82,1.42-1.34,2.15-2Z"/><path d="M837.5,1120.27l9.64-25.92,1.77.63-9.14,26Z"/><path d="M797.72,1223.23q-4.54,10.1-9.07,20.19l-2.12-.94,9-20.25Z"/><path d="M792.13,881.25l12.44,1.12a.86.86,0,0,1,.79.93l0,.41a.86.86,0,0,1-.91.79l-12.49-.65a.86.86,0,0,1-.81-1l.08-.87A.88.88,0,0,1,792.13,881.25Z"/><path d="M483.89,1026.66l5.16,11.45C484.57,1037.18,482.17,1032.12,483.89,1026.66Z"/><path d="M778,1260.9q3.4-6.4,6.8-12.81l1.74.84-6.59,13.2Z"/><path d="M759.56,1302.49q2.87-6.1,5.71-12.22l1.89.86-5.85,12.06Z"/><path d="M831.69,1137.42q2.1-6.8,4.21-13.61c1.81,3.81-.66,9.69-4.28,13.56Z"/><path d="M775.75,1272.91,770.67,1283l-1.8-.86,4.61-10.3Z"/><path d="M713.78,1397.75c1.46,1.69,2.09,2.38,2.66,3.11.92,1.15,1.8,2.32,2.69,3.49-.63.39-1.67,1.24-1.82,1.1a28.59,28.59,0,0,1-3.88-4.13C713.1,1400.88,713.54,1399.86,713.78,1397.75Z"/></svg>